<?xml version="1.0" standalone="no"?>
<!DOCTYPE svg PUBLIC "-//W3C//DTD SVG 20010904//EN"
 "http://www.w3.org/TR/2001/REC-SVG-20010904/DTD/svg10.dtd">
<svg version="1.0" xmlns="http://www.w3.org/2000/svg"
 width="1250.000000pt" height="1250.000000pt" viewBox="0 0 1250.000000 1250.000000"
 preserveAspectRatio="xMidYMid meet">

<g transform="translate(0.000000,1250.000000) scale(0.100000,-0.100000)"
fill="#000000" stroke="none">
<path d="M4693 9865 c-134 -37 -258 -123 -364 -257 -43 -54 -86 -113 -95 -129
-8 -17 -44 -61 -79 -99 -106 -116 -226 -379 -270 -590 -27 -134 -20 -123 -68
-115 -23 4 -73 16 -112 26 -99 27 -292 52 -345 45 -25 -3 -101 -29 -169 -58
-114 -48 -127 -57 -177 -114 -103 -117 -107 -168 -34 -386 30 -90 79 -207 125
-296 73 -143 76 -151 100 -292 14 -80 28 -185 31 -235 3 -49 16 -124 29 -165
13 -41 38 -131 56 -200 26 -100 51 -162 125 -310 156 -311 317 -505 625 -749
306 -243 343 -270 482 -349 224 -127 351 -235 455 -386 114 -166 170 -232 256
-302 112 -90 199 -137 302 -163 45 -11 97 -26 115 -34 56 -24 189 -127 189
-146 0 -10 -46 -92 -101 -182 -56 -90 -131 -213 -167 -274 -86 -145 -235 -365
-336 -495 -45 -58 -111 -143 -146 -190 -35 -47 -96 -119 -135 -161 -38 -41
-135 -147 -215 -234 -80 -88 -166 -180 -191 -205 -25 -25 -70 -74 -100 -110
-30 -35 -114 -128 -186 -205 -73 -77 -133 -145 -133 -152 0 -27 46 -64 86 -70
78 -10 102 6 237 160 170 195 217 252 334 403 56 71 146 179 200 240 54 60
118 134 143 164 24 30 67 80 95 110 28 30 65 75 81 100 16 25 61 88 100 140
39 52 182 264 317 470 313 478 293 450 317 450 11 0 39 -19 63 -43 23 -24 84
-67 135 -95 50 -29 122 -74 159 -101 75 -55 216 -122 308 -146 35 -9 102 -15
165 -15 84 0 124 -5 193 -25 107 -31 353 -125 507 -193 157 -70 502 -166 635
-178 55 -5 285 -8 510 -7 l410 1 183 56 c196 60 253 85 317 136 22 18 68 45
102 61 141 63 463 302 644 475 74 71 164 151 200 177 77 55 136 126 178 217
40 86 48 159 26 236 -28 98 -57 136 -178 234 -159 128 -326 206 -482 225 -33
4 -70 13 -83 19 -19 10 -20 14 -10 27 7 9 125 97 262 195 324 233 396 304 489
489 117 233 88 372 -138 660 -77 97 -195 214 -375 370 -238 206 -313 257 -500
337 -151 65 -242 88 -350 88 l-87 0 15 57 c12 47 12 73 3 138 -6 44 -11 104
-11 133 0 47 -5 59 -41 105 -23 29 -53 77 -68 107 -19 40 -53 81 -131 155
-185 176 -212 208 -307 367 l-92 153 -148 131 c-81 71 -188 159 -238 193 -49
35 -106 78 -125 95 -48 43 -182 87 -286 93 -60 4 -108 0 -185 -16 -57 -11
-153 -25 -214 -31 -60 -5 -158 -18 -217 -29 -59 -11 -142 -23 -185 -26 -136
-10 -237 -27 -255 -42 -12 -11 -26 -13 -45 -8 -41 12 -67 7 -173 -27 -129 -42
-264 -96 -401 -160 -84 -40 -130 -69 -176 -112 -46 -43 -67 -56 -82 -51 -11 3
-122 114 -247 246 -125 132 -244 253 -263 269 -20 15 -41 41 -46 57 -6 16 -56
72 -111 125 -120 113 -257 200 -355 223 -79 18 -207 18 -276 0z m303 -78 c39
-14 91 -37 115 -52 54 -34 266 -241 358 -350 101 -119 251 -332 278 -395 13
-30 29 -65 36 -77 12 -22 185 -268 323 -459 40 -55 81 -118 91 -140 10 -21 32
-56 50 -78 18 -21 46 -73 64 -115 17 -42 66 -155 109 -251 l79 -175 6 -185
c13 -350 -19 -571 -118 -812 -19 -45 -57 -150 -85 -233 -28 -82 -80 -211 -115
-285 -35 -74 -88 -193 -117 -265 -29 -71 -54 -132 -56 -134 -3 -3 -8 0 -14 5
-5 5 2 58 20 134 45 200 58 244 131 449 38 106 69 202 69 212 0 22 -48 57 -58
43 -4 -6 -34 -46 -68 -90 -33 -43 -83 -112 -109 -152 -41 -62 -51 -71 -62 -59
-14 13 -64 174 -84 267 -5 25 -19 59 -29 75 l-20 30 0 -25 c0 -63 32 -228 63
-324 27 -82 32 -108 22 -116 -40 -34 -123 193 -190 522 -40 194 -55 242 -71
226 -3 -4 12 -116 34 -250 41 -247 72 -364 132 -490 35 -74 37 -111 10 -156
-28 -46 -41 -33 -80 82 -17 53 -43 107 -60 127 l-29 34 35 -135 c20 -74 43
-146 52 -159 9 -13 21 -30 26 -37 7 -8 1 -25 -16 -52 -35 -52 -56 -101 -83
-192 -13 -41 -25 -75 -28 -75 -16 0 -87 105 -128 190 -49 99 -93 165 -104 153
-6 -6 39 -127 76 -201 l20 -42 -46 49 c-25 26 -62 83 -82 124 -20 42 -61 112
-91 157 -88 129 -283 551 -362 785 -98 293 -214 823 -230 1055 -8 117 -36 275
-56 306 -19 32 -20 -33 -3 -226 31 -342 55 -478 149 -840 91 -352 185 -603
322 -865 10 -19 39 -75 64 -125 26 -49 61 -111 79 -137 40 -54 75 -122 75
-141 0 -7 13 -26 29 -41 29 -28 45 -72 30 -81 -16 -10 -231 290 -254 354 -7
22 -43 81 -79 131 -97 135 -198 326 -260 494 -30 82 -62 159 -71 172 -83 127
63 -313 171 -515 26 -47 64 -121 85 -164 22 -43 71 -124 109 -179 39 -56 70
-106 70 -112 -1 -19 -67 63 -176 217 -96 135 -124 166 -124 136 0 -6 25 -49
55 -95 30 -47 66 -106 79 -132 13 -26 40 -63 60 -81 20 -19 36 -38 36 -43 0
-11 -109 30 -145 55 -16 12 -48 36 -69 54 -42 35 -52 35 -67 -4 -7 -20 -5 -33
12 -62 21 -35 59 -134 59 -154 0 -6 -10 -2 -21 9 -27 24 -158 204 -192 264
-24 43 -33 63 -71 171 -12 34 -28 54 -56 73 -22 14 -46 39 -55 56 -32 63 -107
277 -125 357 -10 46 -27 99 -39 119 -12 19 -44 90 -71 157 -28 67 -63 139 -78
161 -14 21 -32 53 -38 70 -29 77 -78 181 -105 224 -16 26 -48 103 -71 172 -56
170 -56 247 -5 530 35 191 52 256 128 495 15 50 46 160 68 246 60 234 128 393
213 495 77 92 282 279 333 304 118 56 212 61 341 17z m3016 -412 c37 -8 84
-21 103 -31 68 -32 39 -39 -161 -40 -104 0 -292 -4 -418 -8 -192 -8 -228 -7
-224 5 5 15 140 40 310 58 57 6 126 17 153 25 55 15 129 12 237 -9z m156 -148
c67 -19 168 -67 229 -108 82 -55 123 -101 171 -194 31 -60 69 -113 114 -161
37 -39 75 -88 84 -109 9 -21 26 -47 39 -57 13 -10 46 -48 73 -85 28 -38 75
-90 104 -118 61 -57 208 -250 238 -312 25 -50 60 -241 60 -327 l0 -61 -57 -30
c-118 -61 -447 -296 -495 -353 -13 -15 -47 -47 -77 -72 -30 -25 -131 -137
-225 -250 -93 -113 -260 -297 -371 -410 -110 -113 -218 -226 -240 -250 -23
-25 -57 -61 -77 -80 -20 -19 -99 -97 -175 -174 -76 -76 -183 -173 -238 -216
-55 -43 -119 -98 -141 -123 -29 -32 -52 -47 -75 -51 -67 -10 -179 -15 -179 -7
0 14 57 96 85 121 15 14 36 37 47 53 17 24 18 27 2 27 -9 0 -45 -29 -80 -65
-35 -36 -69 -65 -75 -65 -6 0 1 21 15 46 28 50 33 78 14 72 -7 -3 -40 -39 -72
-82 -32 -42 -93 -105 -135 -141 -42 -35 -119 -108 -172 -163 -96 -100 -241
-212 -247 -193 -2 6 8 26 22 44 14 19 26 40 26 49 0 8 7 23 15 34 8 10 15 29
15 42 0 12 4 22 9 22 14 0 131 186 131 209 0 11 13 40 30 63 16 24 34 63 39
86 l9 44 -23 -22 c-29 -27 -55 -80 -55 -111 0 -13 -13 -37 -29 -54 -16 -16
-52 -75 -81 -130 -28 -55 -62 -111 -74 -125 -13 -14 -30 -36 -39 -49 -13 -20
-17 -22 -22 -9 -8 20 90 217 155 312 26 39 60 95 74 124 17 34 39 61 61 73 37
22 49 47 46 96 -2 34 51 148 113 245 78 122 196 383 306 673 29 77 75 187 103
245 76 163 187 433 187 458 0 47 -29 20 -60 -55 -49 -120 -98 -229 -150 -333
-26 -52 -82 -183 -125 -290 -43 -107 -88 -215 -100 -240 -13 -25 -39 -86 -58
-136 -19 -50 -84 -179 -144 -285 -61 -107 -148 -265 -194 -353 -78 -147 -123
-215 -135 -203 -3 2 4 31 15 63 19 57 18 88 -2 81 -6 -2 -51 -84 -99 -183
-106 -215 -102 -207 -116 -212 -8 -2 -12 10 -12 38 0 23 -4 40 -9 38 -5 -1
-38 -59 -73 -128 -34 -69 -67 -124 -73 -123 -42 9 26 224 136 429 110 204 181
346 214 429 15 39 50 122 77 185 57 130 179 485 209 605 45 183 35 422 -30
675 -17 63 -33 140 -36 170 -3 30 -19 100 -35 155 -15 55 -33 132 -39 170 -10
71 -71 231 -119 315 -14 25 -62 99 -107 165 -93 139 -105 162 -105 214 0 48
17 70 142 181 111 98 253 179 398 225 96 31 106 32 670 28 168 -1 341 2 385 7
114 12 349 4 413 -13z m-4092 -144 c-3 -10 -24 -88 -46 -173 -44 -164 -72
-240 -89 -240 -40 0 48 350 102 408 25 26 40 29 33 5z m2136 -95 c-61 -79
-128 -142 -137 -128 -10 16 1 52 27 85 22 28 139 108 147 100 2 -3 -15 -28
-37 -57z m-281 -70 c192 -213 287 -347 384 -543 67 -136 114 -280 97 -297 -11
-11 -47 42 -58 87 -3 17 -17 41 -30 55 -13 14 -37 52 -54 85 -16 33 -124 192
-240 354 -129 181 -210 303 -210 318 0 44 35 25 111 -59z m-2424 -248 c151
-20 279 -51 309 -75 l28 -22 -17 -94 c-31 -167 -37 -260 -31 -499 6 -259 14
-332 48 -430 33 -92 119 -286 181 -410 29 -58 65 -139 80 -182 14 -42 39 -96
54 -120 30 -48 126 -266 137 -313 4 -16 15 -41 24 -55 38 -55 130 -254 136
-293 l5 -42 -50 53 c-63 66 -66 47 -6 -43 25 -38 43 -71 40 -73 -11 -12 -192
145 -250 216 -35 44 -74 83 -85 87 -11 3 -29 21 -42 38 -174 250 -362 494
-283 367 100 -160 273 -400 340 -470 121 -128 213 -219 264 -261 35 -29 52
-50 47 -57 -14 -23 -104 38 -190 130 -72 76 -116 107 -116 81 0 -5 32 -43 70
-87 70 -79 137 -136 229 -195 46 -30 51 -37 51 -68 0 -29 11 -48 55 -100 81
-96 76 -104 -29 -43 -90 53 -177 116 -377 276 -127 100 -182 152 -232 215 -36
46 -74 89 -85 96 -11 7 -23 26 -27 42 -4 17 -29 65 -56 106 -27 42 -49 78 -49
81 0 2 -27 62 -60 132 -41 88 -72 174 -100 282 -23 85 -54 187 -70 225 -16 39
-36 98 -45 133 -9 35 -42 136 -74 225 -32 89 -75 214 -96 277 -20 63 -70 204
-111 313 -77 206 -84 243 -70 347 11 74 17 83 87 131 122 83 203 100 366 79z
m5973 -1010 c0 -5 -37 -21 -81 -35 -45 -14 -93 -34 -108 -44 -14 -10 -54 -30
-89 -44 -35 -14 -129 -73 -210 -130 -168 -119 -195 -135 -186 -112 3 8 88 74
187 146 173 125 247 168 362 210 54 19 125 25 125 9z m230 -84 c177 -38 277
-102 474 -303 80 -82 184 -197 231 -255 46 -58 116 -135 154 -170 37 -34 80
-82 94 -105 15 -23 31 -44 37 -48 6 -4 28 -42 50 -86 29 -56 40 -91 40 -123 0
-97 -76 -273 -153 -355 -29 -31 -276 -219 -439 -334 -36 -26 -75 -61 -86 -80
-15 -24 -45 -44 -111 -76 -52 -25 -123 -71 -167 -107 -42 -35 -81 -64 -86 -64
-6 0 -60 -33 -122 -74 -61 -41 -136 -86 -166 -101 -30 -15 -104 -61 -165 -103
-60 -41 -139 -89 -175 -105 -36 -17 -108 -61 -160 -97 -95 -67 -169 -110 -190
-110 -6 0 -41 -21 -76 -46 -76 -54 -313 -166 -400 -188 -132 -34 -159 -6 -30
31 95 28 146 57 146 85 0 19 -4 20 -54 14 -29 -3 -93 -18 -142 -32 -204 -60
-294 -75 -456 -81 -258 -9 -290 11 -104 68 118 36 197 74 285 136 34 25 84 53
110 62 25 10 100 55 166 101 66 46 145 94 175 108 61 28 365 245 350 250 -13
5 -41 -12 -135 -79 -45 -32 -101 -65 -124 -73 -22 -9 -85 -46 -139 -84 -199
-141 -581 -341 -723 -377 -32 -8 -93 -18 -136 -20 -43 -3 -101 -11 -128 -16
-41 -9 -60 -8 -99 5 -69 24 -106 45 -106 60 0 8 29 31 65 51 36 20 69 44 75
55 9 17 7 18 -22 9 -46 -13 -50 -12 -38 10 5 11 35 32 65 47 52 25 82 54 69
67 -3 3 -44 -15 -92 -39 -48 -24 -100 -46 -117 -50 l-30 -5 40 36 c33 30 181
108 457 241 111 54 273 147 325 187 32 24 132 95 223 157 225 154 251 175 456
362 99 90 201 180 228 200 26 20 60 53 74 72 15 19 61 59 102 88 163 117 200
148 174 148 -25 0 -260 -174 -344 -255 -36 -34 -94 -84 -129 -110 -35 -26 -82
-68 -105 -93 -38 -42 -196 -165 -311 -242 -27 -19 -75 -57 -105 -86 -30 -28
-66 -55 -79 -59 -32 -10 -115 -63 -221 -140 -103 -76 -317 -193 -384 -211
l-49 -13 43 44 c41 42 60 54 144 89 45 20 275 178 451 310 181 137 117 119
-82 -23 -92 -66 -235 -161 -318 -210 -82 -50 -195 -119 -250 -155 -100 -63
-354 -200 -430 -231 l-40 -17 28 29 c53 56 28 58 -51 4 -95 -64 -261 -143
-288 -137 -23 6 -22 8 29 82 104 150 165 230 217 287 75 83 246 207 359 262
124 62 133 69 118 103 -16 39 -45 69 -74 77 -13 3 -23 11 -21 18 3 7 43 41 90
77 77 58 270 248 703 692 77 78 205 202 285 273 80 72 206 190 282 264 220
215 575 461 738 512 42 13 231 9 300 -5z m-6374 -252 c8 -18 14 -46 14 -61 0
-15 11 -52 25 -80 13 -29 40 -112 59 -185 20 -73 40 -147 45 -165 9 -30 8 -32
-11 -20 -11 7 -28 28 -38 47 -33 65 -130 434 -130 496 0 24 21 5 36 -32z
m3237 -327 c9 -23 -10 -98 -28 -115 -17 -16 -17 -14 -11 38 3 30 6 63 6 73 0
20 25 23 33 4z m-49 -208 c-21 -72 -55 -149 -65 -149 -21 0 -17 26 16 110 42
109 45 114 56 103 5 -5 2 -32 -7 -64z m-625 -776 c-60 -163 -84 -354 -61 -494
9 -56 11 -89 4 -103 -9 -20 -11 -19 -26 16 -50 117 -45 426 10 557 22 52 62
101 83 101 18 0 17 -6 -10 -77z m-831 -250 c38 -49 80 -97 92 -108 12 -11 33
-41 46 -68 14 -26 54 -87 89 -136 77 -105 149 -252 171 -347 8 -38 21 -91 29
-118 8 -28 12 -52 10 -54 -22 -22 -204 147 -258 239 -16 27 -30 72 -37 119
-24 165 -32 203 -57 271 -14 39 -59 120 -100 180 -40 60 -69 109 -64 109 5 0
41 -39 79 -87z m873 65 c1 -7 0 -19 -1 -27 -1 -8 -5 -69 -9 -135 l-7 -121 -17
37 c-21 47 -22 111 -1 193 15 59 32 85 35 53z m-1176 -112 c34 -25 85 -70 113
-101 76 -83 168 -215 180 -258 6 -21 29 -67 51 -102 45 -71 50 -88 24 -83 -10
2 -28 26 -41 53 -13 27 -45 77 -71 110 -26 33 -63 83 -81 110 -18 28 -89 104
-156 171 -68 67 -124 126 -124 133 0 23 45 9 105 -33z m273 -60 c21 -32 32
-60 32 -84 0 -34 0 -35 -20 -17 -11 10 -24 32 -29 49 -5 17 -16 48 -26 70 -23
54 1 44 43 -18z m498 -4 c30 -46 57 -108 37 -87 -20 22 -61 82 -77 112 -25 49
3 31 40 -25z m1319 9 c-40 -55 -63 -77 -71 -68 -11 11 31 71 66 94 18 13 35
23 36 23 2 0 -12 -22 -31 -49z m-489 13 c-4 -15 -18 -43 -32 -63 l-24 -36 0
30 c0 29 37 95 54 95 4 0 5 -12 2 -26z m858 -27 c-10 -28 -64 -54 -191 -91
-68 -20 -152 -47 -189 -61 -75 -28 -144 -34 -125 -11 7 8 23 17 38 21 14 3 51
23 82 44 42 28 90 46 191 74 116 31 188 46 198 41 1 -1 0 -8 -4 -17z m-1500
-9 c3 -13 6 -43 6 -68 0 -25 9 -83 20 -130 11 -47 24 -141 30 -210 6 -69 18
-168 27 -220 32 -191 28 -245 -15 -202 -24 24 -88 216 -102 310 -6 35 -17 91
-25 125 -8 34 -14 71 -14 82 0 11 -3 34 -7 52 -13 66 38 283 67 283 4 0 9 -10
13 -22z m-390 -109 c23 -31 30 -47 19 -40 -17 8 -70 91 -60 91 3 0 21 -23 41
-51z m182 -100 c34 -57 48 -117 34 -139 -15 -25 -46 15 -59 78 -7 31 -28 85
-47 120 -19 34 -34 66 -34 70 1 14 76 -77 106 -129z m1455 14 c-5 -11 -50 -49
-98 -85 -110 -82 -174 -149 -292 -308 -114 -151 -134 -174 -236 -259 -133
-111 -281 -180 -340 -157 -12 4 -4 17 37 59 29 30 67 78 84 108 17 30 50 87
73 127 50 86 178 249 271 343 l65 67 135 41 c74 23 171 54 215 70 82 29 105
27 86 -6z m3231 -5 c169 -80 395 -226 490 -315 46 -45 50 -70 27 -161 -25
-100 -78 -197 -146 -266 -53 -54 -218 -182 -398 -309 -392 -275 -586 -402
-711 -465 -156 -79 -387 -138 -572 -148 -98 -5 -124 -2 -307 35 -110 22 -306
65 -435 97 -129 31 -284 67 -345 81 -102 23 -148 43 -133 59 4 3 47 1 98 -6
124 -16 292 -18 297 -4 5 16 -65 30 -212 44 -148 13 -308 44 -399 76 -38 13
-72 26 -74 29 -21 21 111 36 248 28 78 -5 98 -3 108 9 23 29 3 46 -74 64 -102
24 -101 45 1 43 60 -1 80 2 95 16 16 15 32 17 85 13 50 -4 72 -2 97 12 18 9
67 20 108 24 111 11 363 55 374 66 20 20 -7 22 -114 8 -166 -21 -160 3 13 52
57 16 138 43 178 59 102 40 361 166 423 205 28 18 71 40 95 50 89 35 697 470
788 564 68 71 103 83 223 79 86 -2 103 -6 172 -39z m-4312 -184 c16 -60 21
-116 23 -231 1 -94 -2 -154 -8 -155 -17 -5 -45 123 -55 252 -5 69 -12 159 -15
200 l-7 75 21 -31 c12 -17 30 -67 41 -110z m3524 -67 c-105 -95 -127 -113
-224 -179 -185 -128 -502 -295 -630 -333 -22 -7 -23 -6 -12 8 18 21 125 84
252 147 58 29 147 82 199 118 52 36 117 74 145 84 28 11 69 37 91 58 22 21 63
49 90 63 28 14 70 40 95 56 25 17 47 31 49 31 3 0 -22 -24 -55 -53z m-3264
-227 c0 -21 -29 -68 -46 -74 -24 -9 -28 -1 -14 26 24 46 60 75 60 48z m685
-142 l40 -11 -35 -8 c-54 -12 -252 -31 -258 -24 -13 13 21 29 85 40 90 17 120
17 168 3z m-520 -172 c-29 -38 -44 -46 -86 -46 -41 0 -36 16 9 31 20 6 48 20
62 30 38 28 44 23 15 -15z m790 4 c60 -11 154 -23 208 -27 115 -7 123 -22 21
-41 -158 -28 -451 -105 -489 -128 -113 -67 -222 -92 -345 -78 -131 16 -309
110 -273 145 12 12 219 78 313 101 211 51 390 60 565 28z m929 -64 c-8 -20
-90 -53 -174 -71 -83 -18 -305 -21 -315 -4 -4 6 -5 12 -2 15 10 10 159 35 317
53 91 10 168 19 172 20 4 0 5 -5 2 -13z m-2078 -78 c-4 -19 -24 -50 -47 -73
l-40 -40 22 50 c28 63 48 95 61 95 6 0 8 -13 4 -32z m1177 -148 c31 -11 64
-20 73 -20 8 0 14 -6 12 -12 -6 -17 -255 -35 -270 -20 -6 6 10 20 49 40 32 16
63 30 68 31 6 1 36 -8 68 -19z m-236 -104 l233 -1 -27 -20 c-28 -20 -170 -54
-231 -55 -47 0 -170 29 -214 51 -41 21 -53 45 -17 34 12 -4 127 -8 256 -9z
m1119 -371 c116 -30 228 -62 250 -71 l39 -17 -35 -9 c-42 -12 -58 -9 -240 36
-261 66 -289 77 -277 111 5 12 14 15 30 11 12 -4 117 -31 233 -61z"/>
<path d="M5307 6223 c7 -45 20 -73 33 -73 14 0 12 35 -4 75 -20 47 -36 45 -29
-2z"/>
<path d="M7196 6328 c-7 -13 -58 -99 -111 -193 -54 -93 -107 -187 -119 -207
-24 -42 -17 -57 14 -35 33 23 62 71 166 272 69 133 91 185 80 185 -9 0 -22
-10 -30 -22z"/>
<path d="M6416 5973 c-30 -61 -37 -93 -21 -93 25 0 55 51 55 91 0 49 -11 49
-34 2z"/>
<path d="M4158 6505 c19 -38 72 -97 72 -81 0 11 -56 90 -76 106 -14 13 -14 9
4 -25z"/>
<path d="M4240 6350 c0 -11 14 -34 31 -52 l30 -33 -7 35 c-3 19 -10 43 -16 53
-12 23 -38 22 -38 -3z"/>
<path d="M7635 5179 c-50 -28 -94 -62 -89 -70 7 -12 76 27 106 58 23 24 16 29
-17 12z"/>
<path d="M7436 5077 c-78 -56 -48 -63 34 -7 33 22 60 43 60 45 0 16 -43 -2
-94 -38z"/>
<path d="M8101 4051 c-22 -14 20 -31 82 -33 55 -1 85 8 70 22 -13 13 -136 22
-152 11z"/>
<path d="M8605 4055 c-5 -2 -23 -6 -38 -9 -15 -4 -25 -11 -22 -16 8 -13 49
-13 98 2 32 10 36 13 21 19 -20 8 -43 10 -59 4z"/>
</g>
</svg>
