<?xml version="1.0" standalone="no"?>
<!DOCTYPE svg PUBLIC "-//W3C//DTD SVG 20010904//EN"
 "http://www.w3.org/TR/2001/REC-SVG-20010904/DTD/svg10.dtd">
<svg version="1.0" xmlns="http://www.w3.org/2000/svg"
 width="2000.000000pt" height="1000.000000pt" viewBox="0 0 2000.000000 1000.000000"
 preserveAspectRatio="xMidYMid meet">

<g transform="translate(0.000000,1000.000000) scale(0.100000,-0.100000)"
fill="#000000" stroke="none">
<path d="M13794 7560 c-112 -23 -243 -124 -328 -255 -21 -33 -56 -78 -77 -100
-71 -75 -160 -275 -190 -424 -6 -34 -16 -64 -20 -67 -5 -3 -46 4 -92 15 -125
31 -221 42 -270 31 -73 -16 -190 -76 -229 -116 -72 -75 -75 -129 -17 -292 23
-65 61 -153 85 -198 47 -87 67 -167 83 -335 16 -157 83 -377 165 -534 69 -132
173 -271 282 -375 123 -117 377 -309 508 -383 134 -76 240 -172 324 -295 113
-164 237 -260 383 -297 72 -18 199 -96 199 -121 0 -18 -174 -310 -284 -474
-122 -184 -286 -390 -461 -578 -93 -101 -204 -221 -245 -268 -41 -46 -108
-120 -148 -164 l-74 -79 26 -26 c26 -26 58 -31 99 -16 26 10 211 219 333 376
42 55 114 141 158 191 237 267 251 286 533 716 103 158 194 289 200 292 7 3
29 -10 49 -30 21 -19 62 -48 93 -66 31 -17 76 -46 101 -63 115 -83 236 -125
355 -125 62 0 102 -7 170 -29 101 -33 278 -102 335 -131 20 -10 109 -39 196
-64 216 -60 322 -71 636 -62 246 7 250 7 370 42 127 37 182 60 235 100 18 14
51 33 75 43 68 29 335 225 423 310 44 42 112 103 152 134 119 94 167 173 168
277 0 97 -27 144 -130 225 -95 74 -201 129 -284 146 -122 25 -133 29 -121 44
6 8 89 69 183 136 216 154 282 221 342 343 54 109 64 169 41 248 -16 56 -80
158 -163 260 -59 72 -331 312 -425 375 -136 89 -335 160 -430 151 l-38 -3 7
40 c8 47 8 45 -2 154 -6 63 -13 89 -30 110 -12 14 -32 45 -43 68 -12 23 -77
97 -145 165 -101 101 -132 140 -175 218 -48 86 -64 105 -170 197 -64 57 -144
121 -177 144 -33 23 -69 50 -80 60 -27 24 -92 46 -170 59 -52 8 -81 7 -165
-10 -56 -11 -119 -20 -140 -20 -21 0 -74 -7 -117 -15 -43 -8 -136 -22 -206
-30 -71 -8 -134 -18 -140 -22 -7 -4 -37 -8 -67 -9 -101 -2 -423 -139 -505
-215 l-47 -44 -199 205 c-110 113 -199 209 -199 214 0 20 -142 146 -209 186
-104 62 -194 80 -297 60z m183 -55 c28 -8 78 -33 110 -55 114 -76 380 -393
436 -520 11 -25 74 -121 141 -215 158 -224 186 -265 186 -277 0 -5 13 -26 29
-46 15 -20 39 -64 52 -97 12 -33 44 -107 71 -164 l48 -103 0 -198 c0 -211 -14
-327 -51 -428 -12 -31 -44 -120 -71 -197 -27 -77 -72 -189 -100 -250 -28 -60
-66 -146 -84 -190 -34 -84 -58 -112 -48 -53 16 85 76 295 115 405 42 117 43
123 26 140 -16 17 -18 16 -36 -2 -18 -19 -121 -161 -141 -194 -9 -14 -11 -14
-20 -1 -9 14 -34 93 -60 193 -7 26 -17 50 -21 53 -23 14 6 -168 41 -257 20
-49 13 -72 -14 -50 -22 18 -83 215 -112 361 -24 120 -39 168 -51 157 -2 -2 9
-78 23 -168 24 -148 44 -223 101 -371 13 -35 15 -53 7 -75 -16 -46 -37 -34
-60 35 -22 61 -52 118 -60 110 -7 -8 48 -193 63 -210 14 -15 11 -24 -21 -88
-19 -39 -38 -87 -42 -106 -3 -19 -10 -37 -15 -39 -12 -8 -65 68 -99 140 -60
126 -90 129 -36 3 l36 -83 -30 35 c-17 19 -42 60 -57 90 -15 30 -44 80 -64
110 -68 102 -201 390 -257 558 -65 194 -147 568 -161 739 -10 119 -28 210 -42
219 -13 8 -11 -69 6 -231 21 -206 51 -354 116 -589 69 -250 215 -586 326 -751
18 -27 33 -57 33 -66 0 -8 11 -26 25 -39 14 -13 25 -33 25 -44 0 -20 0 -20
-19 -1 -32 34 -161 218 -161 231 0 7 -24 48 -53 91 -84 122 -133 214 -188 354
-48 122 -69 159 -69 126 0 -8 18 -68 41 -133 57 -167 153 -360 238 -482 24
-34 42 -65 39 -68 -3 -3 -48 52 -98 123 -51 70 -94 129 -95 131 -2 2 -5 0 -8
-5 -7 -11 96 -182 130 -215 15 -15 24 -30 21 -33 -10 -10 -88 28 -132 64 -35
28 -41 30 -54 17 -13 -13 -12 -22 10 -73 14 -32 29 -69 33 -83 6 -24 6 -24
-19 5 -62 72 -147 208 -170 269 -13 37 -26 68 -28 70 -1 1 -15 9 -29 19 -30
18 -75 124 -114 271 -13 48 -30 98 -38 110 -7 11 -28 58 -46 104 -19 45 -41
92 -50 105 -9 12 -30 54 -45 92 -16 39 -41 90 -57 115 -42 68 -83 213 -82 290
1 36 13 130 27 210 24 135 35 176 86 335 11 33 29 98 40 145 31 128 59 207
102 295 34 68 57 96 156 193 87 84 130 117 167 132 61 23 134 25 202 5z m2089
-286 c84 -11 160 -37 147 -49 -13 -12 -593 -24 -593 -12 0 11 74 25 220 42 67
8 128 20 147 29 1 1 36 -4 79 -10z m214 -128 c30 -12 85 -43 123 -68 59 -39
72 -54 103 -116 20 -38 57 -93 84 -121 26 -28 53 -62 60 -76 15 -29 67 -92
165 -200 113 -125 163 -204 179 -285 8 -39 16 -99 17 -135 l3 -64 -80 -46
c-96 -55 -265 -178 -314 -229 -20 -20 -54 -52 -75 -71 -22 -19 -92 -98 -155
-175 -63 -77 -169 -194 -235 -260 -66 -67 -141 -143 -166 -170 -25 -28 -55
-59 -66 -70 -12 -11 -66 -65 -120 -119 -54 -54 -137 -130 -185 -168 -49 -38
-88 -74 -88 -79 0 -17 -56 -37 -116 -41 -55 -4 -61 -2 -56 14 2 10 24 41 48
67 24 27 44 52 44 55 0 17 -26 1 -62 -39 -49 -54 -68 -59 -38 -10 29 47 21 69
-11 30 -42 -52 -332 -334 -376 -366 -49 -35 -53 -28 -18 32 14 24 25 50 25 56
0 7 16 34 36 60 20 27 43 64 52 83 8 19 19 44 25 55 32 60 38 77 35 93 -2 13
-9 8 -26 -19 -12 -20 -22 -45 -22 -55 0 -10 -9 -27 -19 -38 -11 -12 -38 -55
-60 -96 -45 -82 -87 -138 -96 -128 -8 8 58 138 105 208 20 30 45 71 55 90 10
19 33 49 51 66 27 25 33 38 32 67 -1 27 11 56 46 114 69 115 156 298 221 463
31 80 78 193 105 252 57 124 130 301 130 317 0 6 -6 11 -13 11 -6 0 -23 -28
-36 -62 -13 -35 -49 -115 -79 -178 -49 -105 -129 -290 -219 -510 -19 -46 -61
-129 -92 -185 -32 -55 -95 -168 -140 -251 -74 -138 -111 -193 -111 -166 0 5 7
26 15 46 16 37 12 62 -7 50 -6 -4 -40 -67 -75 -140 -63 -132 -83 -158 -83
-109 0 14 -3 25 -7 25 -5 -1 -27 -42 -51 -92 -32 -67 -47 -87 -55 -79 -8 8 -5
31 12 89 24 81 29 93 157 342 126 246 248 560 289 746 25 109 17 303 -18 449
-61 254 -69 293 -78 347 -13 84 -78 225 -159 344 -50 74 -74 119 -78 147 -5
39 -3 41 76 116 78 76 150 121 272 173 53 22 67 23 420 29 560 9 634 7 700
-20z m-2944 -97 c-3 -9 -18 -62 -32 -117 -29 -116 -49 -167 -63 -167 -13 0
-14 -6 3 82 16 81 50 183 67 204 16 19 32 17 25 -2z m1527 -37 c-15 -28 -105
-118 -111 -112 -14 14 17 62 63 97 50 37 64 42 48 15z m-74 -237 c106 -142
207 -350 198 -409 -3 -23 -6 -19 -30 31 -14 31 -30 59 -36 62 -5 3 -19 25 -30
49 -12 23 -88 137 -171 252 -82 116 -150 215 -150 221 0 31 22 19 87 -49 40
-42 99 -112 132 -157z m-1750 -27 c51 -9 103 -24 114 -33 20 -17 20 -18 4
-116 -23 -135 -24 -474 -2 -558 21 -78 56 -166 125 -311 31 -66 63 -136 70
-155 7 -19 33 -75 58 -125 24 -49 56 -119 69 -155 14 -36 49 -114 79 -173 68
-136 73 -175 13 -104 -38 44 -37 13 1 -37 69 -91 -12 -36 -145 99 -50 50 -137
155 -194 233 -56 78 -105 142 -107 142 -20 0 180 -286 255 -364 31 -32 67 -70
81 -85 14 -14 50 -47 79 -73 30 -26 52 -51 48 -55 -14 -13 -80 31 -131 89 -44
50 -76 72 -76 52 0 -19 110 -129 170 -170 54 -37 70 -53 70 -72 0 -14 17 -43
40 -69 72 -82 48 -79 -80 8 -222 152 -388 304 -448 413 -13 22 -31 52 -41 66
-32 45 -119 243 -136 310 -21 82 -93 304 -155 480 -26 74 -55 158 -63 187 -9
28 -41 120 -72 204 -54 145 -57 157 -50 216 8 75 25 99 97 138 89 49 134 51
327 18z m4116 -692 c-6 -5 -28 -14 -50 -21 -79 -25 -192 -86 -303 -163 -62
-44 -115 -77 -118 -74 -6 6 190 154 260 197 53 32 154 69 191 69 17 1 25 -3
20 -8z m180 -62 c96 -21 174 -68 278 -168 54 -52 128 -131 165 -175 36 -45
105 -122 152 -171 48 -51 100 -118 119 -154 30 -57 33 -70 28 -118 -7 -71 -54
-170 -108 -228 -24 -26 -112 -96 -197 -157 -84 -61 -161 -122 -169 -135 -9
-13 -47 -40 -85 -59 -38 -19 -89 -53 -112 -75 -24 -21 -47 -39 -53 -39 -5 0
-47 -25 -93 -56 -47 -31 -107 -67 -135 -81 -27 -14 -77 -44 -110 -68 -33 -23
-85 -55 -115 -70 -30 -15 -83 -47 -118 -72 -34 -24 -84 -54 -110 -65 -26 -12
-60 -31 -77 -43 -75 -56 -284 -145 -342 -145 -33 0 -7 21 45 36 68 19 102 39
102 59 0 21 -14 20 -194 -25 -103 -26 -196 -43 -257 -47 -99 -6 -174 1 -164
17 3 5 48 23 101 40 58 20 121 50 160 76 35 24 79 50 99 58 19 8 75 42 123 74
48 33 105 68 127 79 48 23 239 162 232 170 -3 2 -41 -20 -85 -50 -44 -30 -91
-58 -104 -63 -12 -4 -47 -25 -76 -46 -116 -86 -386 -229 -505 -268 -38 -12
-170 -30 -237 -33 -39 -1 -110 29 -110 47 0 6 16 20 35 30 19 10 42 28 52 38
17 19 17 19 -12 12 -28 -7 -29 -6 -16 10 8 10 32 26 53 37 21 11 38 24 38 29
0 15 -14 12 -67 -14 -26 -14 -59 -28 -73 -32 l-25 -7 20 22 c10 12 123 74 249
137 222 111 254 131 556 345 86 60 275 223 420 361 30 29 95 82 143 118 48 36
83 66 77 68 -5 2 -52 -27 -103 -64 -88 -64 -135 -104 -306 -259 -42 -38 -119
-100 -171 -137 -52 -37 -108 -80 -124 -97 -17 -17 -36 -31 -43 -31 -7 0 -63
-34 -124 -75 -126 -86 -274 -171 -316 -181 l-28 -7 34 36 c19 20 51 42 70 48
52 17 420 273 421 293 0 14 -23 1 -136 -80 -60 -43 -154 -105 -209 -139 -55
-34 -136 -84 -180 -112 -90 -56 -274 -156 -320 -173 l-30 -11 24 25 c31 33 10
34 -32 2 -52 -39 -198 -108 -215 -101 -13 5 -12 9 5 28 11 12 43 56 70 97 28
41 70 97 94 124 57 64 181 156 267 197 37 18 72 37 79 41 19 15 -4 64 -38 78
-16 7 -29 16 -29 21 0 4 21 22 48 40 26 17 173 158 327 313 154 155 354 351
445 435 91 84 180 169 198 188 94 97 392 289 487 314 35 9 138 3 210 -12z
m-4515 -203 c1 -12 8 -39 16 -61 22 -55 85 -278 80 -282 -19 -20 -104 230
-121 357 -5 42 -5 44 10 26 8 -11 15 -29 15 -40z m2280 -229 c0 -18 -7 -42
-16 -53 -14 -18 -15 -17 -10 21 3 22 6 46 6 53 0 6 5 12 10 12 6 0 10 -15 10
-33z m-50 -170 c-12 -32 -26 -57 -31 -57 -5 0 -9 4 -9 9 0 10 21 71 41 116 23
55 22 -5 -1 -68z m-410 -450 c0 -2 -11 -37 -25 -78 -35 -100 -50 -250 -35
-324 8 -37 8 -61 2 -67 -32 -32 -53 214 -28 330 16 78 49 142 72 142 8 0 14
-1 14 -3z m-554 -285 c30 -35 54 -68 54 -74 0 -6 23 -42 52 -81 54 -74 128
-221 128 -254 0 -10 6 -42 14 -71 7 -29 11 -52 9 -52 -33 0 -149 114 -182 179
-10 20 -24 76 -30 125 -15 107 -44 184 -105 272 -50 71 -60 96 -20 49 14 -16
50 -58 80 -93z m560 8 c-7 -60 -14 -88 -19 -77 -10 27 -9 92 4 143 19 74 27
36 15 -66z m-830 21 c81 -59 193 -196 216 -264 6 -17 19 -43 28 -57 35 -52 42
-70 25 -70 -8 0 -21 16 -29 35 -24 55 -158 225 -235 296 -39 36 -71 71 -71 77
0 20 25 14 66 -17z m210 -62 c8 -16 14 -38 14 -51 0 -19 -2 -20 -14 -8 -7 8
-18 29 -24 45 -5 17 -14 39 -18 50 -7 18 -6 19 10 6 9 -8 24 -27 32 -42z m364
-28 c0 -17 -11 -3 -44 54 -17 29 -17 29 13 -5 17 -19 31 -41 31 -49z m899 38
c-21 -27 -35 -37 -37 -29 -4 12 49 70 64 70 3 0 -9 -19 -27 -41z m-358 -22
c-25 -38 -28 -19 -4 26 9 18 18 26 20 19 3 -7 -5 -27 -16 -45z m-411 -132 c10
-60 22 -148 25 -195 4 -47 13 -114 19 -150 12 -66 11 -100 -4 -100 -25 0 -59
104 -96 290 -26 131 -26 136 -11 213 18 90 40 130 45 81 2 -16 11 -78 22 -139z
m1040 156 c0 -18 -48 -39 -192 -84 -80 -26 -151 -47 -157 -47 -22 0 -10 18 19
29 17 5 45 20 62 33 32 22 203 76 246 77 12 1 22 -3 22 -8z m-1329 -93 c8 -15
8 -18 0 -14 -6 4 -16 16 -22 28 -8 15 -8 18 0 14 6 -4 16 -16 22 -28z m119
-58 c28 -44 41 -110 21 -110 -15 0 -28 23 -40 75 -7 28 -22 66 -34 85 l-21 35
22 -19 c12 -10 35 -40 52 -66z m3300 11 c101 -38 357 -208 381 -253 25 -47
-26 -190 -97 -268 -65 -72 -490 -377 -704 -506 -162 -97 -351 -154 -515 -156
-90 -1 -214 23 -570 108 -230 55 -282 70 -272 80 2 3 61 0 131 -7 127 -12 179
-8 144 12 -9 5 -65 14 -125 20 -59 5 -133 14 -163 20 -71 13 -190 51 -190 60
0 12 108 21 173 14 34 -3 68 -2 76 4 25 16 4 38 -48 51 -28 7 -51 16 -51 20 0
5 26 11 58 14 76 7 177 22 232 34 25 6 96 18 159 27 62 9 120 19 127 22 25 9
14 25 -13 19 -78 -14 -133 -17 -133 -7 0 7 6 13 13 15 196 58 317 109 556 236
114 61 571 389 571 410 0 15 49 43 88 51 47 9 115 1 172 -20z m-2270 2 c0 -10
-17 -29 -37 -43 -71 -48 -164 -143 -248 -255 -47 -62 -114 -136 -148 -165
-108 -89 -231 -144 -252 -110 -3 5 4 15 15 22 21 13 87 106 133 189 29 51 136
186 190 239 28 28 65 45 184 86 178 61 163 58 163 37z m-761 -147 c15 -79 25
-263 14 -269 -22 -13 -51 173 -52 323 0 32 1 34 14 16 8 -10 19 -42 24 -70z
m2505 -27 c-75 -84 -384 -280 -551 -349 -137 -57 -89 -13 78 70 46 23 112 62
147 87 34 24 87 55 116 68 30 13 58 31 63 38 6 12 146 103 162 106 2 1 -4 -9
-15 -20z m-2324 -177 c0 -13 -31 -52 -41 -52 -5 0 -3 14 6 30 14 28 35 41 35
22z m498 -101 c16 -10 -17 -17 -128 -27 -60 -5 -73 -4 -63 6 22 24 163 39 191
21z m-389 -127 c-19 -19 -34 -25 -55 -22 -25 4 -26 5 -9 12 11 4 31 13 45 21
40 21 47 17 19 -11z m571 12 c47 -8 113 -18 147 -21 59 -6 80 -25 29 -25 -57
0 -348 -81 -403 -112 -55 -31 -63 -33 -158 -33 -93 0 -105 2 -167 33 -112 55
-103 66 99 122 183 51 305 61 453 36z m650 -45 c0 -5 -26 -19 -57 -32 -87 -33
-341 -41 -283 -9 21 11 146 30 328 49 6 0 12 -3 12 -8z m-1480 -86 c-7 -13
-19 -26 -26 -29 -11 -4 -11 0 -2 22 7 15 16 33 22 41 16 21 21 -7 6 -34z m897
-100 c-4 -12 -187 -19 -187 -8 0 4 21 17 47 28 44 19 49 19 95 5 26 -8 46 -19
45 -25z m-67 -60 c-8 -8 -48 -21 -89 -30 -83 -17 -149 -10 -224 24 l-42 19
185 1 c162 1 182 -1 170 -14z m607 -241 c76 -19 161 -42 188 -51 48 -16 49
-17 23 -25 -19 -7 -64 0 -173 27 -164 41 -195 52 -195 72 0 18 0 18 157 -23z"/>
<path d="M14208 4981 c2 -17 11 -36 20 -43 13 -11 14 -9 8 17 -4 17 -13 36
-20 43 -10 11 -12 7 -8 -17z"/>
<path d="M15476 4948 c-42 -73 -85 -148 -97 -165 -25 -40 -5 -47 28 -10 20 20
163 285 163 300 0 27 -29 -12 -94 -125z"/>
<path d="M14986 4802 c-9 -17 -16 -39 -16 -48 0 -16 1 -16 19 0 23 21 32 49
21 66 -6 9 -13 4 -24 -18z"/>
<path d="M13390 5193 c0 -7 14 -27 31 -45 16 -18 26 -24 20 -13 -17 33 -51 71
-51 58z"/>
<path d="M13450 5076 c0 -8 9 -24 20 -37 20 -25 25 -15 14 29 -7 24 -34 31
-34 8z"/>
<path d="M15810 4225 c-19 -14 -28 -25 -21 -25 14 0 81 38 81 46 0 11 -28 1
-60 -21z"/>
<path d="M15712 4179 c-24 -17 -41 -33 -38 -36 6 -7 96 49 96 60 0 13 -14 7
-58 -24z"/>
<path d="M16176 3451 c-8 -13 19 -21 70 -21 54 0 58 15 7 24 -52 8 -71 8 -77
-3z"/>
<path d="M16510 3448 c-33 -14 -10 -22 37 -13 27 5 33 9 22 16 -17 11 -27 10
-59 -3z"/>
<path d="M2615 6014 c-191 -46 -424 -227 -604 -470 -182 -246 -380 -629 -491
-949 -138 -400 -178 -773 -110 -1022 50 -182 124 -289 239 -346 62 -30 72 -32
176 -32 128 0 187 15 284 72 105 62 211 179 211 232 0 5 -9 13 -21 16 -16 5
-37 -9 -98 -68 -125 -119 -278 -197 -387 -197 -111 0 -178 54 -245 194 -69
146 -95 298 -85 501 13 277 89 565 238 905 197 451 502 856 761 1011 147 88
272 112 335 66 109 -81 162 -255 162 -534 0 -372 -92 -737 -398 -1583 -131
-362 -161 -455 -291 -905 -167 -577 -194 -711 -153 -748 49 -44 89 -6 202 193
274 480 833 1309 1154 1710 266 333 639 725 906 954 413 353 777 561 1073 612
94 16 153 13 243 -11 54 -15 77 -35 89 -75 9 -31 22 -40 58 -40 53 0 56 89 4
123 -77 50 -284 94 -387 82 -283 -33 -643 -211 -995 -491 -596 -474 -1094
-1054 -1718 -1999 -130 -198 -425 -665 -470 -746 -10 -17 -20 -30 -22 -27 -7
7 88 317 170 558 82 240 173 489 349 952 152 402 210 576 266 794 119 470 127
843 20 1053 -60 119 -162 198 -284 220 -75 14 -106 13 -181 -5z"/>
<path d="M6195 3651 c-61 -35 -149 -114 -391 -353 -99 -98 -186 -178 -192
-178 -33 0 1 89 94 240 38 63 64 117 64 133 0 30 -37 71 -72 83 -38 12 -156
-128 -187 -223 -12 -38 -19 -42 -92 -73 -96 -40 -270 -136 -625 -347 -309
-183 -393 -227 -470 -244 -123 -28 -174 24 -174 176 0 135 33 240 121 391 67
113 69 128 27 154 -18 11 -45 20 -60 20 -14 0 -55 13 -90 30 -107 51 -170 37
-287 -60 -116 -96 -178 -224 -188 -387 l-6 -92 31 -30 c23 -23 40 -31 67 -31
49 0 80 18 145 84 30 31 57 56 61 56 3 0 11 -36 17 -81 14 -97 37 -153 87
-207 45 -51 106 -81 185 -92 123 -17 209 23 617 292 136 90 287 187 335 216
84 51 247 132 265 132 4 0 7 -19 5 -43 -5 -60 13 -121 49 -162 39 -44 60 -50
101 -29 18 9 128 112 243 228 142 143 235 229 288 264 70 47 107 63 107 47 0
-10 -31 -66 -86 -160 -79 -133 -105 -216 -111 -350 -4 -106 -3 -112 24 -164
35 -68 67 -92 131 -99 95 -9 257 64 597 268 121 73 236 140 255 150 l35 18 0
-97 c0 -89 2 -101 34 -165 44 -90 144 -196 214 -227 42 -19 68 -23 132 -23
110 2 201 37 455 178 295 163 363 198 480 251 102 46 269 105 339 120 35 7 35
7 19 -16 -31 -48 -88 -207 -88 -246 0 -109 129 -170 275 -129 28 7 94 26 148
40 54 15 106 24 116 21 19 -6 51 -70 51 -103 0 -40 -22 -90 -60 -136 -22 -26
-49 -69 -61 -95 -20 -46 -20 -46 0 -62 12 -10 31 -14 50 -11 38 5 97 76 147
173 26 53 56 88 146 172 62 57 130 119 151 137 l37 32 0 -39 c0 -109 129 -170
275 -129 28 7 94 26 148 40 54 15 106 24 116 21 19 -6 51 -70 51 -103 0 -40
-22 -90 -60 -136 -22 -26 -49 -69 -61 -95 -20 -46 -20 -46 0 -62 12 -10 31
-14 51 -11 38 5 104 84 149 177 33 70 156 193 349 347 61 50 112 97 112 104 0
47 -130 -31 -310 -186 -105 -90 -105 -90 -120 -68 -77 118 -163 132 -384 62
-60 -19 -119 -34 -131 -34 -96 0 57 346 221 499 68 64 145 102 172 84 37 -23
55 -61 60 -132 5 -78 18 -97 57 -87 49 13 62 119 23 196 -18 35 -35 51 -78 73
-50 26 -63 28 -135 25 -67 -4 -90 -10 -143 -38 -113 -60 -205 -166 -290 -335
-34 -68 -49 -86 -98 -121 -33 -23 -104 -81 -159 -128 -100 -86 -100 -86 -115
-64 -77 118 -163 132 -384 62 -126 -39 -152 -42 -161 -15 -15 48 54 221 140
350 86 130 236 244 283 214 38 -23 55 -62 58 -129 4 -78 19 -100 59 -90 49 13
62 118 23 196 -18 35 -35 51 -78 73 -50 26 -62 28 -135 24 -61 -3 -92 -10
-131 -29 -78 -40 -148 -101 -198 -171 l-46 -64 -87 -17 c-194 -39 -444 -146
-831 -358 -232 -127 -290 -152 -385 -168 -132 -23 -194 6 -249 117 -30 62 -33
75 -33 163 0 81 4 102 25 145 l25 50 85 1 c103 1 172 25 262 91 165 120 188
190 83 257 -66 41 -140 45 -227 13 -139 -50 -248 -136 -313 -244 -25 -43 -41
-56 -120 -96 -49 -26 -166 -92 -260 -148 -300 -180 -495 -269 -589 -269 -57 0
-71 21 -62 95 9 75 34 142 123 320 102 202 121 260 105 314 -15 50 -63 91
-105 91 -18 0 -55 -13 -82 -29z m1465 -131 c0 -24 -94 -109 -152 -138 -73 -35
-138 -50 -138 -30 0 23 106 113 171 146 64 31 119 42 119 22z m-3540 -140 c13
-25 10 -30 -91 -181 -73 -108 -222 -269 -249 -269 -28 0 27 168 85 261 45 71
111 145 162 178 54 36 78 39 93 11z"/>
</g>
</svg>
